<?xml version="1.0" encoding="UTF-8"?><svg xmlns="http://www.w3.org/2000/svg" viewBox="0 0 38.28 46.38"><g id="a"/><g id="b"><g id="c"><g><path d="M6.46,34.34c-.11-.12-.18-.21-.27-.29-1.19-1.07-2.06-2.37-2.73-3.81-.39-.84-.79-1.67-1.34-2.43-.5-.69-1.08-1.29-1.78-1.78-.1-.07-.19-.17-.25-.27-.15-.26-.13-.29,.13-.42,.08-.04,.17-.07,.26-.08,1.83-.21,3.58,.05,5.21,.93,.34,.19,.67,.4,1,.6,.15,.09,.18,.07,.19-.11,.05-1.02-.33-1.89-.91-2.7-.12-.17-.24-.35-.34-.53-.11-.21-.04-.35,.2-.38,.93-.09,1.85-.03,2.73,.34,.24,.11,.48,.22,.73,.32,.04,.02,.09,.03,.15,.06,0-.07,.01-.11,.02-.16,.02-1.05,.04-2.1,.05-3.15,0-.61-.03-1.22-.05-1.84,0-.13,.04-.16,.17-.15,.61,.04,1.12,.35,1.64,.61,.95,.49,1.78,1.16,2.62,1.8,.02,.01,.04,.03,.08,.05,.03-.05,.06-.1,.08-.15,.14-.34,.28-.68,.43-1.01,.2-.48,.54-.88,.87-1.28,.64-.77,1.32-1.52,1.96-2.3,.5-.6,.9-1.26,1.1-2.03,.06-.22,.16-.44,.29-.62,.2-.29,.6-.28,.79,.02,.16,.25,.28,.53,.38,.81,.24,.7,.57,1.35,1.06,1.91,.42,.48,.86,.95,1.3,1.42,.64,.68,1.2,1.43,1.56,2.29,.11,.26,.2,.52,.29,.78,.04,.12,.1,.15,.22,.06,.47-.35,.94-.71,1.43-1.04,.67-.46,1.36-.87,2.12-1.18,.15-.06,.3-.13,.45-.19,.31-.13,.5,0,.49,.33-.02,.37-.09,.73-.1,1.09-.03,.77-.03,1.54-.04,2.31,0,.48,0,.96,0,1.43,0,.18,.04,.21,.2,.14,.45-.18,.89-.39,1.36-.53,.57-.18,1.17-.2,1.76-.16,.17,.01,.34,.08,.5,.14,.04,.01,.08,.12,.06,.16-.08,.17-.16,.34-.27,.49-.65,.85-1.01,1.8-.98,2.88,0,.17,.02,.18,.17,.1,.56-.3,1.12-.61,1.69-.88,1.17-.55,2.41-.75,3.69-.68,.28,.01,.57,.04,.85,.04,.24,0,.4,.14,.6,.24-.1,.21-.19,.42-.39,.55-.7,.48-1.32,1.06-1.81,1.75-.37,.52-.69,1.08-.99,1.64-.32,.58-.58,1.2-.9,1.78-.51,.92-1.15,1.73-1.9,2.47-.22,.22-.42,.45-.66,.7,.17,.04,.3,.08,.44,.1,1.51,.24,3.02,.48,4.49,.89,.1,.03,.2,.04,.3,.06,.21,.06,.26,.24,.11,.38-.17,.16-.34,.31-.53,.44-1.11,.76-2.29,1.38-3.52,1.93-.08,.04-.16,.07-.23,.11-.14,.08-.16,.15-.06,.28,.18,.22,.38,.44,.56,.66,.41,.51,.79,1.05,1.05,1.66,.02,.05,.04,.1,.05,.15,.1,.32-.06,.56-.4,.55-.32-.01-.64-.05-.96-.09-.72-.07-1.42-.02-2.12,.16-.77,.2-1.54,.44-2.34,.54-1.19,.15-2.36,.1-3.47-.41-.36-.17-.7-.38-1.05-.58-.1-.06-.2-.11-.31-.16-.17-.08-.27-.04-.33,.15-.04,.13-.07,.27-.11,.4-.26,.81-.73,1.47-1.39,1.98-.47,.36-.98,.66-1.47,1-.46,.31-.82,.71-1.03,1.24-.07,.17-.18,.3-.32,.42-.11,.09-.19,.07-.27-.03-.12-.17-.27-.33-.35-.51-.34-.73-.92-1.19-1.58-1.6-.7-.43-1.31-.97-1.75-1.67-.24-.39-.39-.81-.46-1.25-.05-.27-.19-.35-.43-.21-.17,.1-.33,.22-.5,.32-.85,.53-1.78,.78-2.78,.82-1.04,.03-2.03-.18-3.02-.45-.5-.14-.99-.3-1.5-.37-.47-.06-.96-.02-1.44,0-.25,0-.5,.05-.75,.07-.2,.02-.35-.06-.45-.23-.09-.17-.06-.34,.05-.49,.36-.52,.73-1.04,1.1-1.56,.18-.25,.35-.51,.54-.75,.09-.11,.04-.18-.06-.23-.24-.11-.48-.21-.71-.32-.8-.37-1.57-.8-2.31-1.29-.31-.21-.62-.42-.92-.65-.1-.08-.17-.21-.25-.31-.05-.07-.04-.12,.03-.17,.15-.11,.31-.2,.5-.24,1.48-.25,2.95-.52,4.43-.78,.1-.02,.2-.04,.35-.07Z" style="fill:#5c0f76;"/><path d="M19.06,21.32c-.23,.18-.24,.19-.35,.54-.32,.95-.82,1.81-1.37,2.63-.42,.63-.86,1.25-1.25,1.89-.47,.76-.78,1.6-1.05,2.45-.29,.92-.57,1.84-.62,2.82-.07,1.41,.37,2.66,1.24,3.76,.61,.78,1.43,1.29,2.38,1.56,.97,.27,1.9,.18,2.78-.33,.96-.56,1.67-1.36,2.18-2.34,.44-.86,.59-1.79,.52-2.75-.05-.78-.23-1.54-.45-2.29-.39-1.3-.95-2.52-1.71-3.65-.39-.57-.77-1.14-1.13-1.73-.41-.68-.72-1.4-.97-2.16-.04-.13-.12-.26-.18-.39Z" style="fill:#c3dde2;"/><path d="M31.41,23.98c-.07,0-.11,0-.16,.01-1.24,.2-2.39,.64-3.47,1.27-.88,.51-1.7,1.12-2.48,1.77-.42,.36-.85,.71-1.28,1.06-.28,.22-.35,.49-.24,.82,.01,.03,.02,.06,.03,.1,.27,.83,.56,1.66,.66,2.53,.14,1.22-.07,2.38-.66,3.45-.24,.44-.56,.83-.85,1.24-.14,.2-.31,.38-.46,.57-.05,.06-.07,.14,.04,.14,.28,0,.56,.03,.84-.02,.42-.07,.84-.16,1.25-.28,1.66-.49,2.99-1.45,3.94-2.91,.35-.54,.65-1.11,.86-1.72,.21-.6,.42-1.19,.59-1.8,.14-.52,.24-1.05,.34-1.58,.06-.32,.11-.65,.15-.98,.06-.55,.08-1.11,.16-1.66,.09-.61,.3-1.19,.62-1.72,.05-.08,.08-.18,.13-.29Z" style="fill:#c3dde2;"/><path d="M6.68,23.98c.02,.07,.03,.1,.04,.12,.02,.04,.04,.09,.06,.13,.42,.69,.6,1.46,.69,2.25,.07,.65,.11,1.31,.19,1.96,.18,1.49,.59,2.91,1.23,4.26,.52,1.08,1.23,2,2.17,2.75,1.01,.8,2.17,1.22,3.42,1.41,.26,.04,.53,.06,.79,.08,.04,0,.12-.02,.12-.04,0-.04-.02-.1-.04-.14-.04-.06-.09-.1-.13-.15-.71-.77-1.25-1.64-1.53-2.66-.26-.95-.23-1.91-.12-2.87,.09-.77,.33-1.49,.62-2.21,.13-.32,.09-.44-.14-.67-.69-.68-1.42-1.32-2.2-1.89-1.38-1.02-2.86-1.85-4.55-2.24-.19-.04-.39-.06-.61-.09Z" style="fill:#c3dde2;"/><path d="M16.43,24.74c.09-.1,.15-.17,.21-.24,.07-.09,.14-.18,.2-.27,.7-1.1,1.29-2.25,1.7-3.49,.08-.23,.16-.45,.25-.68,.04-.09,.08-.19,.21-.19,.13,0,.18,.09,.22,.19,.06,.14,.11,.29,.16,.43,.46,1.39,1.08,2.69,1.89,3.91,.07,.11,.16,.2,.26,.32,.1-.14,.19-.25,.26-.37,.29-.47,.55-.96,.85-1.41,.38-.57,.46-1.17,.31-1.82-.17-.76-.55-1.41-1-2.02-.71-.96-1.43-1.9-2.15-2.85-.2-.27-.38-.56-.58-.83-.14-.19-.31-.19-.48-.02-.04,.04-.07,.08-.1,.12-.78,1.06-1.57,2.12-2.35,3.19-.3,.41-.6,.82-.84,1.26-.34,.62-.45,1.32-.51,2.02-.01,.16,0,.29,.09,.43,.36,.6,.72,1.2,1.07,1.8,.1,.16,.19,.32,.3,.5Z" style="fill:#c3dde2;"/><path d="M21.76,38.03s.04,.07,.05,.08c.37,.41,.75,.82,1.06,1.3,.22,.35,.49,.66,.86,.86,.47,.26,.95,.52,1.44,.73,1.46,.61,2.97,.73,4.51,.35,1.05-.26,2.1-.51,3.19-.46,.11,0,.22-.05,.34-.08-.79-1.38-1.9-2.37-3.35-2.98-.82-.34-1.67-.53-2.56-.57-.5-.02-1.01-.01-1.51,.05-.32,.04-.62,.19-.94,.29-.76,.24-1.55,.31-2.34,.38-.25,.02-.5,.04-.77,.06Z" style="fill:#c3dde2;"/><path d="M16.09,37.97l-.02-.04c-.11,0-.22-.02-.33-.02-.92,0-1.82-.12-2.69-.41-.82-.27-1.64-.46-2.52-.38-1.33,.12-2.59,.43-3.73,1.17-.85,.55-1.52,1.26-2.04,2.12-.08,.13-.06,.18,.09,.2,.2,.03,.4,.04,.6,.05,.99,.07,1.96,.3,2.93,.54,.77,.18,1.54,.24,2.32,.17,.98-.09,1.89-.38,2.77-.83,.61-.31,1.14-.7,1.54-1.27,.22-.32,.48-.61,.73-.91,.11-.13,.23-.25,.34-.38Z" style="fill:#c3dde2;"/><path d="M19,38.13v-.03c-.4,.02-.8,.02-1.2,.06-1.05,.1-1.81,.59-2.14,1.64-.18,.58-.25,1.16-.07,1.75,.23,.75,.73,1.29,1.41,1.67,.62,.34,1.25,.65,1.72,1.2,.07,.08,.15,.08,.23,.02,.07-.05,.13-.09,.2-.14,.45-.3,.9-.61,1.36-.9,.36-.22,.71-.45,1.01-.76,.52-.53,.78-1.17,.78-1.91,0-.73-.3-1.35-.81-1.86-.43-.43-.95-.71-1.57-.75-.31-.02-.63,0-.94,0Z" style="fill:#c3dde2;"/><path d="M27.65,20.12h.05c-.01-.13,0-.27-.03-.4-.04-.19-.07-.2-.25-.13-.06,.02-.12,.05-.17,.07-.66,.33-1.26,.74-1.84,1.2-1.44,1.14-2.53,2.57-3.3,4.24-.08,.17-.08,.33,0,.49,.37,.71,.74,1.41,1.11,2.11,.09,.17,.21,.19,.37,.06,.13-.1,.26-.22,.39-.32,1.09-.88,2.13-1.82,3.29-2.61,.23-.16,.34-.39,.35-.66,.02-.49,.03-.98,.04-1.47,0-.86,0-1.71,0-2.57Z" style="fill:#c3dde2;"/><path d="M10.37,19.5c0,.19,0,.36,0,.52,.02,1.4,.05,2.8,.07,4.2,0,.25,.11,.43,.31,.57,1.27,.84,2.45,1.81,3.56,2.85,.05,.05,.1,.09,.16,.13,.09,.07,.17,.05,.23-.04,.03-.05,.06-.1,.09-.15,.16-.29,.32-.57,.47-.86,.2-.37,.4-.74,.59-1.11,.09-.17,.09-.34,0-.53-.37-.79-.8-1.54-1.33-2.23-.54-.71-1.14-1.35-1.83-1.92-.54-.45-1.1-.86-1.73-1.17-.2-.1-.4-.17-.61-.26Z" style="fill:#7b68c9;"/><path d="M37.15,26.04l-.04-.07s-.06-.03-.09-.04c-.05,0-.11,0-.16,0-1.02,0-1.99,.25-2.95,.57-.83,.27-1.59,.68-2.34,1.13-.19,.12-.33,.28-.37,.51-.03,.2-.05,.4-.08,.6-.21,1.67-.71,3.24-1.53,4.7-.32,.58-.7,1.14-1.05,1.71-.02,.03-.02,.08-.03,.11,.04,0,.08,.01,.12,0,.13-.05,.27-.11,.4-.18,1.41-.72,2.55-1.75,3.51-3,.79-1.03,1.39-2.18,1.99-3.32,.4-.76,.91-1.43,1.57-1.98,.3-.25,.62-.47,.94-.7,.04-.03,.09-.04,.13-.06Z" style="fill:#c3dde2;"/><path d="M1.12,26.07c.1,.05,.2,.1,.29,.16,.64,.41,1.18,.93,1.59,1.55,.32,.48,.61,.99,.86,1.5,.44,.88,.91,1.73,1.49,2.52,.81,1.1,1.76,2.05,2.91,2.78,.27,.17,.54,.33,.82,.49,.08,.05,.17,.06,.26,.1l.02-.04s-.02-.06-.04-.09c-.16-.27-.32-.54-.48-.81-.62-1.03-1.12-2.11-1.46-3.26-.25-.87-.41-1.76-.52-2.66-.05-.37-.24-.61-.54-.8-1.11-.7-2.31-1.18-3.6-1.41-.44-.08-.9-.1-1.35-.14-.1,0-.21-.02-.26,.13Z" style="fill:#c3dde2;"/><path d="M28.82,36.47v.06c.09,.04,.17,.1,.26,.13,.15,.06,.31,.1,.46,.16,.65,.23,1.29,.5,1.85,.91,.22,.16,.43,.17,.67,.07,1.18-.52,2.36-1.04,3.53-1.56,.09-.04,.17-.12,.26-.18v-.05c-.09-.02-.16-.04-.23-.05-1.18-.22-2.36-.44-3.56-.51-.3-.02-.61-.01-.91-.02-.35-.01-.68,.06-.98,.24-.45,.27-.9,.54-1.35,.81Z" style="fill:#c3dde2;"/><path d="M2.27,35.83v.06c.09,.06,.18,.14,.28,.19,.22,.11,.45,.22,.68,.32,.86,.4,1.73,.81,2.59,1.21,.25,.12,.47,.11,.71-.04,.76-.49,1.58-.86,2.47-1.08,.05-.01,.1-.04,.16-.07-.04-.04-.05-.05-.07-.07-.46-.3-.91-.61-1.38-.88-.19-.11-.43-.18-.65-.2-.31-.03-.64,0-.95,0-1.23,.05-2.44,.26-3.65,.48-.06,.01-.12,.05-.18,.07Z" style="fill:#c3dde2;"/><g><path d="M25.47,10.36c.88-1.83,.8-3.67-.59-5.3-.08-.09-.15-.21-.16-.32-.04-.37-.14-.72-.29-1.04,0,0,0-.01,0-.02-.25-.53-.61-1-1.02-1.43-1.07-1.14-2.32-1.79-3.68-2.08-1-.21-2.06-.23-3.15-.1-3.19,.37-5.63,2.1-7.49,4.63-.93,1.26-1.5,2.62-1.81,3.97-.34,1.45-.39,2.89-.27,4.21,.24,2.6,.73,5.13,1.49,7.62,.75,2.5,.35,5.16,1.05,7.68,.62,2.23,1.86,4.23,3.49,5.87,1.74,1.75,3.91,2.99,6.24,3.79,.53,.18,.96,.13,1.41-.2,1.07-.79,1.94-1.77,2.46-2.98,.55-1.29,.87-2.58,.77-3.86-.06-.93-.35-1.86-.91-2.78-.66-1.09-1.65-1.87-2.67-2.6-.61-.44-1.22-.87-1.8-1.34-1.77-1.39-1.46-4.22-.47-5.63,.89,.63,1.74,1.34,2.89,1.46,.8,.09,1.76-.46,1.73-1.14-.04-.75,.7-.98,.82-1.6,.07-.35,.3-.66,.48-.98,.1-.19,.21-.47,.38-.53,1.17-.44,1.44-.93,.98-2.1-.43-1.09-.4-2.07,.14-3.18Z" style="fill:#5c0f76;"/><path d="M7.87,13.79c-.09-.83-.12-1.65-.06-2.47,.06-1.23,.28-2.44,.7-3.64C9.78,4.09,13.85,.61,18.66,.97c1.34,.1,2.58,.52,3.7,1.27,.73,.5,1.17,1.23,1.46,2.04,.16,.46-.04,.85-.33,1.2-.96,1.15-2.19,1.85-3.68,2.07-.96,.14-1.92,.3-2.89,.39-2.27,.22-3.59,1.59-4.37,3.58-.31,.8-.54,1.66-.66,2.51-.15,1.09-.46,2.1-.87,3.1-.11,.27-.23,.54-.35,.81-.33,.74-.7,1.47-1.11,2.31-.89-2.14-1.45-4.25-1.68-6.45Z" style="fill:#c3dde2;"/><path d="M24.32,14.85c-.15,.05-.3,.08-.46,.1-.47,.06-.67,.33-.6,.79,.07,.47-.02,.75-.58,.8-.51,.05-.53,.22-.18,.91-.45,.21-.64,.55-.53,1.07,.06,.33-.21,.48-.53,.51-.89,.08-1.66-.24-2.32-.77-.6-.48-1.12-1.07-1.67-1.63-.14-.14-.26-.3-.46-.53-.24,.78,.15,1.25,.51,1.79-.11,.19-.23,.39-.35,.6-1.22,2.08-1,4.31,.69,6.01,.75,.76,1.65,1.38,2.5,2.03,1.13,.87,2.13,1.83,2.51,3.28,.01,.04,.02,.07,.03,.11,.56,2.32-.49,5.29-2.39,6.71-.38,.28-.76,.42-1.25,.24-5.12-1.92-8.51-5.34-9.48-10.88-.19-1.09-.29-2.17-.05-3.26,.31-1.41,1.2-2.44,2.17-3.43,.14-.15,.28-.29,.43-.43,.62-.63,1.26-1.25,1.86-1.92,1.02-1.13,1.56-2.44,1.49-3.99-.03-.69-.14-1.43,.35-2.05-.3-.35-.57-.24-.69,.08-.15,.38-.32,.8-.29,1.2,.14,2.17-.91,3.78-2.33,5.25-.28,.28-.53,.59-.78,.89-.13,.15-.25,.3-.38,.45-.06-.05-.12-.1-.19-.15,.03-.1,.05-.21,.09-.3,.06-.14,.12-.27,.16-.41,.62-1.59,.95-3.27,1.32-4.94,.17-.78,.51-1.54,.89-2.26,.75-1.39,2.05-1.87,3.54-2.06,1.08-.13,2.17-.27,3.23-.53,1.52-.36,2.84-1.11,3.78-2.4,1.05,1.02,1.25,3.03,.3,4.54-.62,.99-.6,1.96-.21,2.98,.09,.23,.19,.45,.28,.68,.23,.55,.15,.73-.41,.91Z" style="fill:#c3dde2;"/><path d="M23.43,12c-.08,.22-.69,.06-1.47-.18s-1.35-.72-1.25-1.03,.75-.15,1.52,.09,1.28,.9,1.2,1.12Z" style="fill:#5c0f76;"/></g><path d="M23.48,31.53h-2.11s-.06,.02-.07,.05l-1.18,3.04c-.03,.07-.13,.06-.14-.01l-1.2-7.69c-.01-.08-.13-.08-.14,0l-1.18,5.29c-.01,.06-.1,.08-.13,.02l-1.12-1.8c-.03-.05-.11-.04-.13,.01l-.37,1.06s-.04,.05-.07,.05h-3.84" style="fill:none; stroke:#5c0f76; stroke-linecap:round; stroke-miterlimit:10; stroke-width:.4px;"/></g></g></g></svg>